<?xml version="1.0" encoding="UTF-8" standalone="yes"?>
<svg version="1.1" xmlns="http://www.w3.org/2000/svg" xmlns:xlink="http://www.w3.org/1999/xlink" xmlns:a="http://ns.adobe.com/AdobeSVGViewerExtensions/3.0/" x="0px" y="0px" width="200px" height="123px" viewBox="-3.4 -2.2 200 123" enable-background="new -3.4 -2.2 200 123" xml:space="preserve">
  <defs>&#xD;
</defs>
  <path fill="#FFFFFF" d="M36.7,34.1c2.1-1.4,4.7-1.9,7.2-1.7c2.2,0.2,4.4,1,6.1,2.5c1.7,1.5,2.8,3.5,3.2,5.6c0.5,2.9,0,6.1-1.7,8.5&#xD;&#xA;&#x9;c-1.3,1.8-3.2,3.1-5.4,3.7c1.6,1.6,3.2,3.2,4.8,4.8c0.6,0.6,1.2,1.1,2,1.3c0.8,0.3,1.7,0.3,2.5,0.4c0,0.2,0,0.4,0,0.6&#xD;&#xA;&#x9;c-2.7,0.6-5.6,0.6-8.1-0.7c-2-1-3.4-2.8-4.9-4.3c-0.6-0.6-1.1-1.3-1.9-1.7c-0.8-0.5-1.6-0.7-2.4-1.1c-1.9-0.8-3.5-2.3-4.5-4.1&#xD;&#xA;&#x9;c-1.5-2.8-1.7-6.3-0.6-9.3C33.7,36.9,35,35.3,36.7,34.1z M41.7,33.7c-0.9,0.2-1.7,0.6-2.4,1.2c-1.2,1.1-1.7,2.7-2.1,4.2&#xD;&#xA;&#x9;c-0.4,2-0.5,4.1-0.3,6.2c0.2,1.9,0.7,3.9,2,5.3c1.8,2.1,5.4,2.1,7.3,0.1c1.4-1.5,2-3.6,2.2-5.6c0.2-2.2,0.2-4.5-0.4-6.6&#xD;&#xA;&#x9;c-0.4-1.5-1.1-3-2.3-3.9C44.7,33.7,43.2,33.4,41.7,33.7z"/>
  <path fill="#003768" d="M0,23.5C24.2,15.7,48.4,7.8,72.6,0c0,5.3,0,10.6,0,15.9c-3.4-0.9-7-1.3-10.6-1.2c-6.4,0.1-12.7,1.3-18.7,3.2&#xD;&#xA;&#x9;c-9.2,2.9-17.8,7.4-25.8,12.9c-5.3,3.7-10.3,7.9-14.8,12.5C1.6,36.8,0.6,30.2,0,23.5z"/>
  <path fill="#003768" d="M18.3,33.7c1.6-0.9,3.4-1.3,5.2-1.3c2.4,0,4.8,0,7.2,0c0,1.9,0,3.8,0,5.7c-0.3,0-0.7,0-1,0&#xD;&#xA;&#x9;c-0.6-1.5-1.6-3-3-3.8c-1.5-0.9-3.5-1.1-5.2-0.4c-1.3,0.6-2.3,1.8-2.8,3.1c-0.9,1.9-1,4.1-0.9,6.2c0.1,2.2,0.7,4.6,2.3,6.3&#xD;&#xA;&#x9;c1.5,1.6,3.8,2.1,5.9,1.8c1.9-0.3,3.5-1.5,4.8-2.9c0,0.4,0.1,0.8,0,1.1c-1.3,1.8-3.3,3.2-5.6,3.6c-2.8,0.5-5.9,0-8.2-1.7&#xD;&#xA;&#x9;c-1.8-1.3-3.1-3.4-3.6-5.6c-0.5-2.3-0.4-4.8,0.5-7.1C14.7,36.7,16.3,34.8,18.3,33.7z"/>
  <path fill="#003768" d="M52.9,49.8c2.2,0,4.5,0,6.8,0c0,4.6,0,9.1,0,13.7c0,0.8-0.1,1.6,0.2,2.4c0.2,0.9,0.8,1.7,1.7,2.1&#xD;&#xA;&#x9;c1,0.5,2.1,0.5,3.2,0.2c1.4-0.4,2.5-1.5,3.6-2.5c0-5.3,0-10.5,0-15.8c1.4,0,2.9,0,4.3,0c0,6.6,0,13.2,0,19.8c-1.4,0-2.9,0-4.3,0&#xD;&#xA;&#x9;c0-0.9,0-1.7,0-2.6c-1.4,1.3-2.9,2.8-4.9,3c-2,0.3-4.3,0-5.9-1.4c-1.4-1.2-2.1-3-2.1-4.8c0-1.3,0-2.5,0-3.8c0-0.2,0-0.4,0-0.6&#xD;&#xA;&#x9;c0-2.1,0-4.1,0-6.2c0-0.7,0-1.4-0.5-1.9c-0.5-0.6-1.3-0.8-2-1C52.9,50.1,52.9,50,52.9,49.8z"/>
  <path fill="#003768" d="M97.1,50c0.8-0.4,1.9,0,2.1,0.9c0.3,0.9-0.3,2.1-1.3,2.1c-0.9,0.1-1.6-0.7-1.7-1.5&#xD;&#xA;&#x9;C96.1,50.8,96.5,50.2,97.1,50z"/>
  <path fill="#003768" d="M161.6,49.9c0.8-0.4,1.8,0.1,2,0.9c0.3,0.9-0.3,2-1.2,2.1c-0.8,0.1-1.6-0.4-1.8-1.2&#xD;&#xA;&#x9;C160.5,51,160.9,50.2,161.6,49.9z"/>
  <path fill="#003768" d="M172.2,52.4c0.2,0,0.4,0,0.6,0c0,1.4,0,2.9,0,4.3c1.5,0,2.9,0,4.4,0c0,0.3,0,0.6,0,0.9c-1.5,0-2.9,0-4.4,0&#xD;&#xA;&#x9;c0,2.4,0,4.9,0,7.3c0,1-0.1,2,0.5,2.8c0.6,0.8,1.8,1,2.7,0.6c0.6-0.2,1-0.6,1.4-1.1c0.1,0.2,0.3,0.3,0.4,0.5&#xD;&#xA;&#x9;c-0.6,0.7-1.3,1.4-2.2,1.8c-1.3,0.6-2.9,0.4-4-0.5c-0.8-0.7-1.2-1.8-1.2-2.9c0-2.9,0-5.7,0-8.6c-0.8,0-1.6,0-2.4,0&#xD;&#xA;&#x9;c0-0.2,0-0.4,0-0.6C169.8,56.1,171.2,54.4,172.2,52.4z"/>
  <path fill="#003768" d="M132,56.8c1.7-0.1,3.3-0.4,5-0.4c0,0.9,0,1.9,0,2.8c0.9-0.8,1.8-1.6,2.7-2.2c0.5-0.3,1-0.6,1.6-0.6&#xD;&#xA;&#x9;c0.8,0.1,1.6,0.5,2.2,1c-0.3,0.8-0.6,1.5-1,2.3c-1-0.5-2-1.1-3.1-1.1c-1,0.1-1.8,0.9-2.5,1.5c0,2.3,0,4.7,0,7c0,0.5,0,1.1,0.5,1.5&#xD;&#xA;&#x9;c0.5,0.3,1.1,0.3,1.6,0.3c0,0.2,0,0.4,0,0.6c-2.2,0-4.4,0-6.6,0c0-0.2,0-0.4,0-0.6c0.6,0,1.3,0,1.7-0.5c0.4-0.5,0.3-1.2,0.4-1.8&#xD;&#xA;&#x9;c0-2.4,0-4.9,0-7.3c0-0.6,0-1.3-0.6-1.7c-0.6-0.3-1.3-0.2-2-0.3C132,57.2,132,57,132,56.8z"/>
  <path fill="#003768" d="M158.6,56.8c1.6-0.1,3.2-0.4,4.8-0.4c0,3.6,0,7.3,0,10.9c0,0.5,0,1,0.5,1.3c0.5,0.3,1.1,0.3,1.6,0.3&#xD;&#xA;&#x9;c0,0.2,0,0.4,0,0.6c-2.3,0-4.6,0-6.9,0c0-0.2,0-0.4,0-0.6c0.7,0,1.5,0.1,2-0.4c0.4-0.5,0.3-1.2,0.3-1.8c0-2.6,0-5.1,0-7.7&#xD;&#xA;&#x9;c0-0.5-0.1-1.1-0.5-1.4c-0.6-0.3-1.2-0.2-1.8-0.3C158.6,57.2,158.6,57,158.6,56.8z"/>
  <path fill="#003768" d="M76.4,56.8c1.5-0.1,3-0.4,4.5-0.4c0,0.9,0,1.7,0,2.5c0.9-1,1.9-2,3.3-2.4c1.5-0.5,3.3,0,4.4,1.2&#xD;&#xA;&#x9;c0.8,0.9,1.1,2,1.1,3.2c0,2.1,0,4.1,0,6.2c0,0.5,0.1,1.1,0.5,1.5c0.5,0.3,1,0.3,1.6,0.3c0,0.2,0,0.4,0,0.6c-2.2,0-4.5,0-6.7,0&#xD;&#xA;&#x9;c0-0.2,0-0.4,0-0.6c0.6,0,1.2,0,1.7-0.3c0.4-0.3,0.4-0.8,0.4-1.2c0-2.2,0-4.3,0-6.5c0-0.7-0.1-1.4-0.5-2c-0.7-1.1-2.2-1.5-3.4-1&#xD;&#xA;&#x9;c-1.1,0.5-1.8,1.4-2.5,2.3c0,2.3,0,4.5,0,6.8c0,0.5,0,1.1,0.4,1.6C81.8,69,82.4,69,83,69c0,0.2,0,0.4,0,0.6c-2.2,0-4.4,0-6.6,0&#xD;&#xA;&#x9;c0-0.2,0-0.4,0-0.6c0.6,0,1.3,0.1,1.7-0.4c0.3-0.4,0.3-1,0.4-1.5c0-2.6,0-5.3,0-7.9c0-0.5-0.1-1-0.4-1.3c-0.5-0.4-1.1-0.3-1.7-0.3&#xD;&#xA;&#x9;C76.4,57.2,76.4,57,76.4,56.8z"/>
  <path fill="#003768" d="M94.1,56.8c1.6-0.1,3.2-0.4,4.8-0.4c0,3.6,0,7.3,0,10.9c0,0.4,0,1,0.4,1.3c0.5,0.4,1.1,0.4,1.7,0.4&#xD;&#xA;&#x9;c0,0.2,0,0.4,0,0.6c-2.3,0-4.6,0-6.8,0c0-0.2,0-0.4,0-0.6c0.6,0,1.3,0,1.8-0.3c0.4-0.2,0.5-0.8,0.5-1.3c0-2.8,0-5.6,0-8.4&#xD;&#xA;&#x9;c0-0.5-0.1-1.1-0.5-1.4c-0.5-0.3-1.2-0.2-1.8-0.3C94.1,57.2,94.1,57,94.1,56.8z"/>
  <path fill="#003768" d="M119,58.7c1.1-1.4,2.8-2.2,4.6-2.2c2.2,0,4.5,1.4,5.2,3.6c0.2,0.6,0.3,1.2,0.3,1.8c-3.1,0-6.1,0-9.2,0&#xD;&#xA;&#x9;c0,1.9,0.3,3.8,1.5,5.3c1,1.3,2.8,2.1,4.4,1.8c1.5-0.3,2.5-1.5,3.5-2.6c0,0.3,0,0.7,0,1c-0.9,1.2-2.1,2.2-3.6,2.6&#xD;&#xA;&#x9;c-1.9,0.4-4,0.1-5.6-1c-1.3-0.9-2.2-2.3-2.5-3.8C117.1,62.8,117.6,60.4,119,58.7z M121.4,57.8c-1,0.8-1.4,2.1-1.5,3.3&#xD;&#xA;&#x9;c2.3,0,4.6,0,6.8,0c0-0.9-0.1-1.8-0.6-2.5C125.2,57.1,122.8,56.7,121.4,57.8z"/>
  <path fill="#003768" d="M147.2,58.1c0.9-1.3,2.7-2,4.2-1.5c0.5,0.2,1,0.5,1.6,0.4c0.4,0,0.5-0.4,0.7-0.6c0.2,0,0.4,0,0.6,0&#xD;&#xA;&#x9;c0,1.3,0,2.6,0,3.9c-0.2,0-0.5,0-0.7,0c-0.1-0.9-0.5-1.8-1.1-2.4c-0.9-0.9-2.5-1.1-3.5-0.3c-0.8,0.6-0.7,2,0,2.7&#xD;&#xA;&#x9;c0.8,0.8,1.9,1.2,2.9,1.7c1,0.5,2.1,1.1,2.7,2.2c0.7,1.3,0.6,2.9-0.3,4.1c-0.8,1.1-2.2,1.8-3.5,1.7c-0.8-0.1-1.5-0.4-2.2-0.7&#xD;&#xA;&#x9;c-0.3-0.1-0.7-0.3-1-0.1c-0.3,0.1-0.4,0.5-0.5,0.8c-0.2,0-0.4,0-0.6,0c0-1.5,0-2.9,0-4.4c0.2,0,0.4,0,0.6,0c0.3,1.3,0.9,2.5,2.1,3.2&#xD;&#xA;&#x9;c0.9,0.6,2.3,0.9,3.2,0.2c1.1-0.7,1.2-2.3,0.4-3.3c-1.5-1.6-4.1-1.7-5.5-3.5C146.3,61,146.4,59.2,147.2,58.1z"/>
  <path fill="#003768" d="M102.3,56.8c2,0,4,0,6,0c0,0.2,0,0.4,0,0.6c-0.5,0.1-1,0.2-1.2,0.7c-0.2,0.7,0.2,1.3,0.4,1.9&#xD;&#xA;&#x9;c0.9,2.1,1.7,4.3,2.6,6.4c0.8-2.2,1.7-4.4,2.5-6.6c0.2-0.6,0.4-1.2,0.3-1.8c-0.2-0.6-1-0.7-1.5-0.7c0-0.2,0-0.4,0-0.6&#xD;&#xA;&#x9;c1.5,0,3.1,0,4.6,0c0,0.2,0,0.4,0,0.6c-0.9,0-1.8,0.4-2.1,1.2c-0.8,1.6-1.3,3.4-2,5.1c-0.8,2.1-1.6,4.1-2.4,6.2c-0.2,0-0.4,0-0.6,0&#xD;&#xA;&#x9;c-1.2-3-2.4-6.1-3.6-9.1c-0.4-0.9-0.7-1.9-1.3-2.7c-0.4-0.6-1.1-0.6-1.8-0.7C102.3,57.2,102.3,57,102.3,56.8z"/>
  <path fill="#003768" d="M179.4,56.8c2,0,4,0,6,0c0,0.2,0,0.4,0,0.6c-0.4,0.1-0.8,0.3-1,0.6c-0.3,0.6,0,1.2,0.2,1.7&#xD;&#xA;&#x9;c1,2.3,1.9,4.6,2.9,6.8c0.6-1.8,1.2-3.7,1.8-5.5c0.3-0.9,0.8-1.9,0.6-2.9c-0.1-0.6-0.7-0.8-1.2-0.8c0-0.2,0-0.4,0-0.6&#xD;&#xA;&#x9;c1.5,0,2.9,0,4.4,0c0,0.2,0,0.4,0,0.6c-0.6,0-1.3,0.2-1.7,0.7c-0.9,1-1.2,2.4-1.6,3.6c-1.5,4.6-3.1,9.2-4.6,13.9&#xD;&#xA;&#x9;c-0.5,1.3-1.1,2.6-2,3.6c-0.6,0.6-1.4,1.1-2.2,1c-0.5,0-1-0.3-1.4-0.5c0.3-0.7,0.5-1.5,0.8-2.2c0.9,0.4,2.1,0.4,2.9-0.3&#xD;&#xA;&#x9;c0.8-0.8,1.2-1.9,1.6-2.9c0.5-1.4,1.1-2.8,1.5-4.3c-1.2-3-2.5-6-3.8-9c-0.4-0.9-0.7-1.9-1.3-2.7c-0.4-0.6-1.2-0.8-1.9-0.8&#xD;&#xA;&#x9;C179.4,57.2,179.4,57,179.4,56.8z"/>
  <path fill="#003768" d="M61.8,79.5c3.8-3,7.4-6.3,10.8-9.9c0,5.8-1.2,11.6-3.5,16.8c-2.1,4.8-5.1,9.3-8.5,13.2&#xD;&#xA;&#x9;c-6.9,7.8-15.5,14-24.5,19.1c-5.6-6.2-10.4-13.1-14.4-20.4c4.5-0.8,8.9-2,13.2-3.6C44.5,91.1,53.6,85.9,61.8,79.5z"/>
  <path fill="#003768" d="M80.7,75.1c0-0.1,0.2-0.4,0.3-0.1c1.4,3.1,2.8,6.3,4.2,9.4c-0.6,0-1.1,0-1.7,0c-0.3-0.5-0.5-1.1-0.7-1.7&#xD;&#xA;&#x9;c-1.4,0-2.7,0-4.1,0c-0.3,0.5-0.5,1.1-0.7,1.6c-0.5,0-1.1,0-1.6,0C77.8,81.2,79.3,78.2,80.7,75.1z M80.8,78c-0.5,1.1-1,2.3-1.5,3.4&#xD;&#xA;&#x9;c1,0,2,0,2.9,0C81.8,80.2,81.3,79.1,80.8,78z"/>
  <path fill="#003768" d="M99.3,74.9c1.1-0.3,2.2,0,3.2,0.4c0,0.5,0,1-0.1,1.5c-0.8-0.4-1.6-0.9-2.5-0.7c-0.5,0.1-0.9,0.4-0.9,0.9&#xD;&#xA;&#x9;c-0.1,0.5,0.4,0.9,0.8,1.2c0.9,0.6,2,1.1,2.7,2c0.8,1.1,0.7,2.8-0.4,3.6c-1.3,1.1-3.2,0.8-4.7,0.2c-0.1-0.6-0.1-1.2-0.1-1.8&#xD;&#xA;&#x9;c0.8,0.5,1.7,1,2.7,0.9c0.6,0,1.1-0.4,1.3-0.9c0.2-0.6-0.1-1.2-0.5-1.5c-0.9-0.7-2-1.1-2.8-2c-0.6-0.7-0.7-1.7-0.3-2.5&#xD;&#xA;&#x9;C98,75.6,98.6,75.1,99.3,74.9z"/>
  <path fill="#003768" d="M127.5,74.8c0.3,0.4,0.4,0.8,0.6,1.2c1.2,2.8,2.5,5.6,3.7,8.3c-0.6,0-1.1,0-1.7,0c-0.2-0.5-0.5-1.1-0.7-1.6&#xD;&#xA;&#x9;c-1.4,0-2.7,0-4.1,0c-0.2,0.5-0.5,1.1-0.7,1.6c-0.5,0-1.1,0-1.6,0C124.5,81.1,125.9,77.9,127.5,74.8z M125.9,81.4c1,0,2,0,2.9,0&#xD;&#xA;&#x9;c-0.5-1.1-1-2.3-1.5-3.4C126.9,79.1,126.4,80.2,125.9,81.4z"/>
  <path fill="#003768" d="M145.7,84.3c1.5-3.2,3-6.4,4.5-9.6c0.6,1.1,1,2.2,1.5,3.3c0.9,2.1,1.9,4.2,2.8,6.3c-0.6,0-1.1,0-1.7,0&#xD;&#xA;&#x9;c-0.2-0.5-0.5-1.1-0.7-1.6c-1.4,0-2.7,0-4.1,0c-0.2,0.5-0.5,1.1-0.7,1.6C146.8,84.3,146.2,84.3,145.7,84.3z M150.1,78&#xD;&#xA;&#x9;c-0.5,1.1-1,2.3-1.5,3.4c1,0,2,0,2.9,0C151.1,80.2,150.6,79.1,150.1,78z"/>
  <path fill="#003768" d="M87,75.1c0.5,0,1.1,0,1.6,0c0,1.9,0,3.7,0,5.6c0,0.8,0.3,1.8,1.1,2.2c0.8,0.4,1.8,0.4,2.5-0.2&#xD;&#xA;&#x9;c0.7-0.5,0.8-1.4,0.8-2.2c0-1.8,0-3.6,0-5.4c0.5,0,0.9,0,1.4,0c0,1.8,0,3.6,0,5.4c0,1.2-0.3,2.4-1.2,3.2c-0.8,0.7-1.9,0.9-3,0.8&#xD;&#xA;&#x9;c-0.9-0.1-1.8-0.5-2.4-1.2c-0.6-0.8-0.8-1.8-0.8-2.8C87,78.7,87,76.9,87,75.1z"/>
  <path fill="#003768" d="M104.9,75.1c2.6,0,5.1,0,7.7,0c0,0.5,0,0.9,0,1.4c-1,0-2,0-3,0c0,2.6,0,5.2,0,7.8c-0.5,0-1.1,0-1.6,0&#xD;&#xA;&#x9;c0-2.6,0-5.2,0-7.8c-1,0-2,0-3,0C104.9,76.1,104.9,75.6,104.9,75.1z"/>
  <path fill="#003768" d="M115,75.1c1.3,0,2.6-0.1,3.9,0.2c1.2,0.3,2.2,1.4,2.1,2.7c0,1.1-0.9,2-1.9,2.3c1,1.3,1.9,2.7,2.9,4&#xD;&#xA;&#x9;c-0.6,0-1.2,0-1.9,0c-0.9-1.3-1.8-2.5-2.7-3.8c-0.3,0-0.5,0-0.8,0c0,1.3,0,2.5,0,3.8c-0.5,0-1,0-1.6,0C115,81.3,115,78.2,115,75.1z&#xD;&#xA;&#x9; M116.6,76.4c0,1,0,1.9,0,2.9c0.8,0,1.6,0.1,2.3-0.4c0.7-0.5,0.8-1.7,0-2.2C118.1,76.4,117.3,76.4,116.6,76.4z"/>
  <path fill="#003768" d="M134,75.1c0.5,0,1.1,0,1.6,0c0,2.6,0,5.2,0,7.8c1.3,0,2.6,0,3.9,0c0,0.5,0,1,0,1.4c-1.8,0-3.6,0-5.4,0&#xD;&#xA;&#x9;C134,81.3,134,78.2,134,75.1z"/>
  <path fill="#003768" d="M141.9,75.1c0.6,0,1.1,0,1.7,0c0,3.1,0,6.2,0,9.3c-0.6,0-1.1,0-1.7,0C141.9,81.3,141.9,78.2,141.9,75.1z"/>
  <path fill="#C1D82F" d="M43.3,17.9c6.1-1.9,12.4-3.1,18.7-3.2c3.6,0,7.1,0.3,10.6,1.2c0,11.3,0,22.6,0,33.8c-1.4,0-2.8,0-4.3,0&#xD;&#xA;&#x9;c0,5.3,0,10.5,0,15.8c-1,1-2.2,2.1-3.6,2.5c-1,0.3-2.2,0.3-3.2-0.2c-0.8-0.4-1.4-1.2-1.7-2.1c-0.2-0.8-0.2-1.6-0.2-2.4&#xD;&#xA;&#x9;c0-4.6,0-9.1,0-13.7c-2.3,0-4.5,0-6.8,0c0,0.2,0,0.4,0,0.6c0.7,0.2,1.5,0.4,2,1c0.4,0.5,0.4,1.3,0.5,1.9c0,2.1,0,4.1,0,6.2&#xD;&#xA;&#x9;c-0.8,0-1.7-0.1-2.5-0.4c-0.8-0.3-1.4-0.8-2-1.3c-1.6-1.6-3.2-3.2-4.8-4.8c2.1-0.6,4.1-1.9,5.4-3.7c1.8-2.4,2.3-5.6,1.7-8.5&#xD;&#xA;&#x9;c-0.4-2.2-1.5-4.2-3.2-5.6c-1.7-1.5-3.9-2.3-6.1-2.5c-2.5-0.2-5.1,0.3-7.2,1.7c-1.7,1.1-3.1,2.8-3.8,4.7c-1.1,3-0.9,6.5,0.6,9.3&#xD;&#xA;&#x9;c1,1.8,2.6,3.3,4.5,4.1c0.8,0.4,1.7,0.6,2.4,1.1c0.7,0.4,1.3,1.1,1.9,1.7c1.5,1.5,3,3.3,4.9,4.3c2.5,1.3,5.4,1.3,8.1,0.7&#xD;&#xA;&#x9;c0,1.3,0,2.5,0,3.8c0,1.8,0.7,3.6,2.1,4.8c1.6,1.4,3.9,1.7,5.9,1.4c2-0.3,3.5-1.7,4.9-3c0,0.9,0,1.7,0,2.6c1.4,0,2.9,0,4.3,0l0,0&#xD;&#xA;&#x9;c-3.3,3.5-6.9,6.8-10.8,9.9c-8.1-5.3-16.9-9.5-26.2-12.2c-9.1-2.7-18.7-4.1-28.2-4.1C5.6,56.6,4,50,2.8,43.3&#xD;&#xA;&#x9;c4.5-4.7,9.4-8.8,14.8-12.5C25.4,25.3,34.1,20.8,43.3,17.9z M18.3,33.7c-2,1.1-3.6,2.9-4.5,5c-0.9,2.2-1.1,4.7-0.5,7.1&#xD;&#xA;&#x9;c0.5,2.2,1.7,4.3,3.6,5.6c2.3,1.7,5.4,2.2,8.2,1.7c2.2-0.4,4.3-1.7,5.6-3.6c0.1-0.4,0-0.8,0-1.1c-1.3,1.4-2.9,2.6-4.8,2.9&#xD;&#xA;&#x9;c-2.1,0.3-4.4-0.2-5.9-1.8c-1.6-1.7-2.2-4-2.3-6.3c-0.1-2.1,0.1-4.3,0.9-6.2c0.6-1.3,1.5-2.5,2.8-3.1c1.6-0.7,3.6-0.5,5.2,0.4&#xD;&#xA;&#x9;c1.4,0.8,2.4,2.3,3,3.8c0.3,0,0.7,0,1,0c0-1.9,0-3.8,0-5.7c-2.4,0-4.8,0-7.2,0C21.7,32.4,19.9,32.9,18.3,33.7z"/>
  <path fill="#C1D82F" d="M41.7,33.7c1.4-0.3,3,0,4.2,0.9c1.3,1,2,2.5,2.3,3.9c0.5,2.2,0.6,4.4,0.4,6.6c-0.2,2-0.8,4.1-2.2,5.6&#xD;&#xA;&#x9;c-1.9,2-5.5,1.9-7.3-0.1c-1.3-1.4-1.8-3.4-2-5.3c-0.2-2.1-0.2-4.2,0.3-6.2c0.3-1.5,0.9-3.1,2.1-4.2C40,34.3,40.8,33.8,41.7,33.7z"/>
  <path fill="#6280A7" d="M7.4,63.1c9.5,0,19.1,1.4,28.2,4.1c9.3,2.8,18.1,6.9,26.2,12.2c-8.2,6.4-17.3,11.7-27,15.3&#xD;&#xA;&#x9;c-4.3,1.6-8.7,2.8-13.2,3.6C15.4,87.3,10.9,75.3,7.4,63.1z"/>
</svg>